<?xml version="1.0" encoding="iso-8859-1"?>
<!-- Generator: Adobe Illustrator 19.0.0, SVG Export Plug-In . SVG Version: 6.00 Build 0)  -->
<svg xmlns="http://www.w3.org/2000/svg" xmlns:xlink="http://www.w3.org/1999/xlink" version="1.1" id="Capa_1" x="0px" y="0px" viewBox="0 0 512 512" style="enable-background:new 0 0 512 512;" xml:space="preserve">
<g>
	<path style="fill:#A0D755;" d="M107.044,412.344c19.743-8.178,73.952-41.678,110.849-69.163l-16.389-39.7   c-45.531,6.653-107.589,21.303-127.34,29.484c-21.92,9.08-32.329,34.209-23.249,56.129   C59.994,411.014,85.124,421.423,107.044,412.344z"/>
	<path style="fill:#A0D755;" d="M404.956,195.947c-19.743,8.178-73.952,41.678-110.849,69.163l16.389,39.7   c45.531-6.653,107.589-21.303,127.34-29.484c21.92-9.08,32.329-34.209,23.249-56.129S426.876,186.867,404.956,195.947z"/>
	<path style="fill:#A0D755;" d="M147.801,155.189c8.178,19.743,41.678,73.952,69.163,110.849l39.7-16.389   c-6.652-45.531-21.303-107.589-29.484-127.34c-9.08-21.92-34.209-32.329-56.129-23.249S138.722,133.269,147.801,155.189z"/>
	<path style="fill:#A0D755;" d="M74.164,275.325c19.743,8.178,81.763,22.821,127.287,29.477l16.483-39.661   c-36.899-27.491-91.14-61.013-110.891-69.194c-21.92-9.08-47.05,1.33-56.129,23.249S52.244,266.246,74.164,275.325z"/>
	<path style="fill:#A0D755;" d="M437.836,332.965c-19.743-8.178-81.763-22.821-127.287-29.477l-16.483,39.661   c36.899,27.491,91.14,61.013,110.891,69.194c21.92,9.08,47.05-1.33,56.129-23.25C470.165,367.175,459.756,342.045,437.836,332.965z   "/>
	<path style="fill:#A0D755;" d="M284.82,122.309c-8.178,19.743-22.821,81.763-29.477,127.287l39.661,16.483   c27.491-36.899,61.013-91.14,69.194-110.891c9.08-21.92-1.33-47.05-23.249-56.129S293.899,100.389,284.82,122.309z"/>
</g>
<path style="fill:#B4E66E;" d="M363.705,128.429c-16.916,16.916-58.63,74.786-85.016,119.018l33.958,34.039  c44.24-26.386,102.147-68.123,119.069-85.046c18.781-18.781,18.781-49.23,0-68.011S382.486,109.648,363.705,128.429z"/>
<path style="fill:#C8FF82;" d="M363.705,128.429c-1.197,1.197-2.547,2.648-3.978,4.236c13.523,8.193,26.303,18.09,37.983,29.77  s21.577,24.46,29.77,37.983c1.588-1.431,3.039-2.781,4.236-3.978c18.781-18.781,18.781-49.23,0-68.011  S382.486,109.648,363.705,128.429z"/>
<circle style="fill:#A0FFB4;" cx="397.71" cy="162.431" r="16.03"/>
<path style="fill:#B4E66E;" d="M148.295,128.429c16.916,16.916,58.629,74.786,85.015,119.018l-33.958,34.039  C155.112,255.1,97.205,213.363,80.283,196.44c-18.781-18.781-18.781-49.23,0-68.011S129.514,109.648,148.295,128.429z"/>
<path style="fill:#C8FF82;" d="M148.295,128.429c1.197,1.197,2.547,2.648,3.978,4.236c-13.523,8.193-26.303,18.09-37.983,29.77  s-21.577,24.46-29.77,37.983c-1.588-1.431-3.039-2.781-4.236-3.978c-18.781-18.781-18.781-49.23,0-68.011  S129.514,109.648,148.295,128.429z"/>
<circle style="fill:#A0FFB4;" cx="114.29" cy="162.431" r="16.03"/>
<path style="fill:#B4E66E;" d="M207.909,103.736c0,23.922,11.424,94.339,24.044,144.274l48.08,0.057  c12.625-49.94,24.058-120.399,24.058-144.331c0-26.56-21.531-48.091-48.091-48.091S207.909,77.176,207.909,103.736z"/>
<path style="fill:#C8FF82;" d="M207.909,103.736c0,1.693,0.071,3.673,0.182,5.808c15.356-3.769,31.391-5.808,47.909-5.808  s32.553,2.039,47.909,5.808c0.111-2.135,0.182-4.115,0.182-5.808c0-26.56-21.531-48.091-48.091-48.091  S207.909,77.176,207.909,103.736z"/>
<circle style="fill:#A0FFB4;" cx="256" cy="103.731" r="16.03"/>
<path style="fill:#B4E66E;" d="M456.409,256.054c-23.922,0-94.339,11.425-144.274,24.044l-0.057,48.08  c49.94,12.625,120.399,24.058,144.331,24.058c26.56,0,48.091-21.531,48.091-48.091S482.969,256.054,456.409,256.054z"/>
<path style="fill:#C8FF82;" d="M456.409,256.054c-1.693,0-3.673,0.071-5.808,0.182c3.769,15.356,5.808,31.391,5.808,47.909  s-2.039,32.553-5.808,47.909c2.135,0.111,4.115,0.182,5.808,0.182c26.56,0,48.091-21.531,48.091-48.091  S482.969,256.054,456.409,256.054z"/>
<circle style="fill:#A0FFB4;" cx="456.41" cy="304.141" r="16.03"/>
<path style="fill:#B4E66E;" d="M55.591,352.237c23.922,0,94.339-11.425,144.274-24.044l0.057-48.08  c-49.94-12.625-120.399-24.058-144.331-24.058c-26.56,0-48.091,21.531-48.091,48.091S29.031,352.237,55.591,352.237z"/>
<path style="fill:#C8FF82;" d="M55.591,352.237c1.693,0,3.673-0.071,5.808-0.182c-3.769-15.356-5.808-31.391-5.808-47.909  s2.039-32.553,5.808-47.909c-2.135-0.111-4.115-0.182-5.808-0.182c-26.56,0-48.091,21.531-48.091,48.091  S29.031,352.237,55.591,352.237z"/>
<circle style="fill:#A0FFB4;" cx="55.59" cy="304.141" r="16.03"/>
<circle style="fill:#C8FF82;" cx="256.03" cy="304.141" r="64.12"/>
<path style="fill:#00AAF0;" d="M291.001,330.612l-13.839-36.904c-3.375-8.999-5.103-18.532-5.103-28.143v-73.633h-32.061v73.633  c0,9.611-1.729,19.144-5.103,28.143l-13.839,36.904c-3.375,8.999-5.103,18.532-5.103,28.143v9.511c0,8.853,7.177,16.03,16.03,16.03  h48.091c8.853,0,16.03-7.177,16.03-16.03v-9.511C296.105,349.144,294.376,339.611,291.001,330.612z"/>
<path style="fill:#0096DC;" d="M239.998,191.932v73.633c0,9.611-1.729,19.144-5.103,28.143l-13.839,36.904  c-3.375,8.999-5.103,18.532-5.103,28.143v9.511c0,5.918,3.244,11.03,8.015,13.807l16.03,2.223h12.824  c-2.656,0-4.809-7.177-4.809-16.03v-9.511c0-9.612,0.519-19.144,1.531-28.143l4.151-36.904c1.012-8.999,1.531-18.532,1.531-28.143  v-41.629c0.271,0.007,0.529,0.057,0.801,0.057c5.87,0,11.298-1.693,16.03-4.447v-27.614H239.998z"/>
<circle style="fill:#00C3FF;" cx="256.03" cy="191.931" r="16.03"/>
<path d="M512,304.098c0-25.65-17.465-47.288-41.125-53.674c3.586-11.302,3.132-23.54-1.495-34.711  c-4.63-11.179-12.954-20.142-23.475-25.595c4.817-8.343,7.397-17.834,7.397-27.727c0-14.851-5.783-28.812-16.284-39.313  c-10.5-10.501-24.462-16.284-39.313-16.284c-9.925,0-19.447,2.596-27.81,7.444c-5.439-10.652-14.463-19.079-25.738-23.75  c-11.122-4.607-23.301-5.075-34.561-1.541c-6.479-23.52-28.045-40.851-53.596-40.851c-25.595,0-47.193,17.39-53.631,40.972  c-11.383-3.672-23.758-3.229-34.982,1.42c-11.135,4.612-20.169,12.993-25.637,23.549c-8.278-4.718-17.671-7.244-27.457-7.244  c-14.851,0-28.812,5.783-39.313,16.284c-10.501,10.5-16.284,24.462-16.284,39.313c0,9.892,2.58,19.383,7.397,27.727  c-10.521,5.453-18.844,14.416-23.475,25.595c-4.627,11.171-5.081,23.409-1.495,34.711C17.465,256.81,0,278.447,0,304.098  c0,25.648,17.462,47.284,41.118,53.672c-3.579,11.309-3.112,23.577,1.501,34.713c8.087,19.524,27.028,31.332,46.954,31.33  c6.459,0,13.026-1.242,19.355-3.864c18.317-7.587,62.907-35.198,99.497-61.485c0,0.084-0.006,0.167-0.006,0.25v9.512  c0,10.354,6.724,19.161,16.032,22.3v58.378h-8.532c-4.142,0-7.5,3.358-7.5,7.5s3.358,7.5,7.5,7.5h24.048c4.142,0,7.5-3.358,7.5-7.5  s-3.358-7.5-7.5-7.5h-0.516v-57.145h33.097v57.145h-0.516c-4.142,0-7.5,3.358-7.5,7.5s3.358,7.5,7.5,7.5h24.048  c4.142,0,7.5-3.358,7.5-7.5s-3.358-7.5-7.5-7.5h-8.532v-58.378c9.308-3.139,16.032-11.946,16.032-22.3v-9.512  c0-0.084-0.005-0.167-0.006-0.25c36.59,26.287,81.18,53.898,99.497,61.485c6.331,2.622,12.895,3.864,19.355,3.864  c19.924,0,38.867-11.807,46.954-31.33c4.624-11.163,5.08-23.407,1.495-34.711C494.535,351.385,512,329.748,512,304.098z   M455.522,221.453c3.617,8.733,3.625,18.395,0.126,27.054c-19.022,0.167-60.913,6.565-102.067,15.172  c35.198-23.021,69.333-48.113,82.896-61.447C445.077,205.876,451.901,212.708,455.522,221.453z M214.001,327.934  c-1.272,3.391-2.312,6.843-3.151,10.335c-7.388-9.732-11.479-21.64-11.479-34.172c0-22.485,13.21-42.467,33.097-51.529v12.944  c0,8.743-1.557,17.327-4.626,25.513L214.001,327.934z M256,183.34c4.705,0,8.532,3.828,8.532,8.532s-3.828,8.532-8.532,8.532  s-8.532-3.828-8.532-8.532S251.295,183.34,256,183.34z M279.532,252.569c19.886,9.062,33.097,29.046,33.097,51.529  c0,12.531-4.09,24.44-11.479,34.172c-0.839-3.493-1.879-6.944-3.151-10.335l-13.84-36.908c-3.07-8.187-4.626-16.771-4.626-25.513  v-12.945H279.532z M426.413,133.685c7.668,7.668,11.891,17.862,11.891,28.706s-4.223,21.039-11.891,28.707  c-15.666,15.666-65.879,51.396-108.323,77.28c-1.889-3.285-4.034-6.411-6.411-9.351L369,201.704c2.929-2.929,2.929-7.678,0-10.606  c-2.929-2.929-7.678-2.929-10.606,0l-57.315,57.315c-2.926-2.371-6.051-4.517-9.352-6.415  c25.882-42.438,61.615-92.653,77.273-108.312c7.668-7.668,17.863-11.891,28.707-11.891S418.745,126.017,426.413,133.685z   M256,63.098c22.385,0,40.597,18.211,40.597,40.597c0,3.815-0.318,8.961-0.944,15.297c-0.408,4.122,2.604,7.794,6.725,8.201  c4.125,0.406,7.795-2.604,8.202-6.725c0.653-6.602,0.991-12.086,1.013-16.336c8.599-3.408,18.168-3.37,26.825,0.216  c8.854,3.667,15.743,10.618,19.353,19.371c-13.357,13.629-38.4,47.706-61.374,82.834c3.748-17.951,7.175-36.492,9.867-53.594  c0.644-4.091-2.151-7.931-6.243-8.575c-4.091-0.649-7.93,2.151-8.575,6.243c-3.17,20.14-7.374,42.292-11.915,63.059v-21.814  c0-10.353-6.724-19.16-16.032-22.3v-17.781c0-4.142-3.358-7.5-7.5-7.5s-7.5,3.358-7.5,7.5v17.781  c-9.308,3.139-16.032,11.946-16.032,22.3v21.83c-9.531-43.593-17.064-91.013-17.064-110.008  C215.403,81.309,233.615,63.098,256,63.098z M173.127,104.348c8.782-3.638,18.563-3.608,27.28-0.02  c0.14,18.964,6.547,60.946,15.173,102.189c-23.144-35.386-48.385-69.703-61.663-83.118  C157.572,114.807,164.439,107.947,173.127,104.348z M85.587,133.685c7.668-7.668,17.862-11.891,28.706-11.891  s21.039,4.223,28.707,11.891c15.664,15.664,51.389,65.869,77.273,108.312c-3.301,1.898-6.426,4.044-9.352,6.415l-57.314-57.314  c-2.929-2.929-7.678-2.929-10.606,0c-2.929,2.929-2.929,7.678,0,10.606l57.322,57.322c-2.378,2.94-4.522,6.066-6.411,9.351  c-42.441-25.882-92.663-61.62-108.323-77.279c-7.668-7.668-11.891-17.863-11.891-28.707S77.919,141.353,85.587,133.685z   M56.478,221.453c3.622-8.744,10.445-15.577,19.045-19.221c13.559,13.329,47.699,38.425,82.898,61.447  c-41.155-8.608-83.042-15.005-102.069-15.172C52.852,239.848,52.86,230.186,56.478,221.453z M103.188,406.091  c-18.212,7.542-39.166-1.135-46.71-19.348c-3.606-8.706-3.609-18.395-0.114-27.055c15.133-0.134,45.197-4.205,80.793-10.953  c4.069-0.771,6.743-4.696,5.972-8.766c-0.771-4.069-4.696-6.744-8.766-5.972c-34.805,6.598-64.986,10.696-78.767,10.696  C33.211,344.694,15,326.483,15,304.098s18.211-40.597,40.597-40.597c22.154,0,82.929,10.239,131.245,21.949  c-0.974,3.621-1.667,7.346-2.065,11.148h-81.084c-4.142,0-7.5,3.358-7.5,7.5s3.358,7.5,7.5,7.5h81.071  c0.394,3.792,1.085,7.518,2.059,11.151c-6.562,1.59-13.46,3.18-20.607,4.747c-4.046,0.887-6.607,4.886-5.72,8.932  c0.769,3.505,3.872,5.896,7.319,5.896c0.532,0,1.072-0.057,1.613-0.175c7.95-1.743,15.601-3.515,22.838-5.286  c1.827,3.551,3.955,6.951,6.368,10.165C163.52,372.161,120.164,399.059,103.188,406.091z M288.581,368.227  c0,4.705-3.828,8.533-8.532,8.533h-48.097c-4.705,0-8.532-3.828-8.532-8.533v-9.512c0-8.744,1.557-17.327,4.626-25.513l13.84-36.908  c3.704-9.876,5.582-20.232,5.582-30.78v-51.717c2.647,1.034,5.523,1.608,8.532,1.608c3.009,0,5.885-0.574,8.532-1.608v51.717  c0,10.548,1.878,20.903,5.582,30.78l13.84,36.909c3.07,8.186,4.626,16.769,4.626,25.513v9.511H288.581z M455.522,386.743  c-3.654,8.822-10.526,15.694-19.348,19.348c-8.822,3.655-18.54,3.655-27.362,0c-16.976-7.032-60.332-33.93-95.446-59.064  c2.412-3.213,4.541-6.613,6.368-10.164c49.771,12.194,111.556,22.612,135.911,22.826  C459.143,368.348,459.137,378.016,455.522,386.743z M456.403,344.694c-22.152,0-82.916-10.237-131.227-21.945  c0.974-3.633,1.665-7.36,2.059-11.152h81.071c4.142,0,7.5-3.358,7.5-7.5s-3.358-7.5-7.5-7.5h-81.084  c-0.398-3.802-1.09-7.526-2.065-11.148c48.31-11.708,109.099-21.949,131.245-21.949c22.385,0,40.597,18.211,40.597,40.597  S478.789,344.694,456.403,344.694z"/>
<path d="M456.403,280.565c-12.976,0-23.532,10.557-23.532,23.532s10.557,23.532,23.532,23.532s23.532-10.557,23.532-23.532  S469.379,280.565,456.403,280.565z M456.403,312.63c-4.705,0-8.532-3.828-8.532-8.532s3.828-8.532,8.532-8.532  s8.532,3.828,8.532,8.532S461.108,312.63,456.403,312.63z"/>
<path d="M256,127.227c12.976,0,23.532-10.557,23.532-23.532S268.976,80.162,256,80.162s-23.532,10.557-23.532,23.532  S243.024,127.227,256,127.227z M256,95.162c4.705,0,8.532,3.828,8.532,8.532s-3.828,8.532-8.532,8.532s-8.532-3.828-8.532-8.532  S251.295,95.162,256,95.162z"/>
<path d="M397.706,185.913c6.026,0,12.053-2.294,16.641-6.882c2.476-2.477,4.328-5.393,5.504-8.668  c1.401-3.898-0.624-8.193-4.522-9.594c-3.899-1.399-8.194,0.625-9.594,4.523c-0.424,1.179-1.095,2.233-1.995,3.134  c-3.327,3.326-8.739,3.326-12.066,0c-3.327-3.327-3.327-8.74,0-12.067c0.9-0.9,1.956-1.572,3.135-1.996  c3.898-1.4,5.924-5.695,4.524-9.593s-5.694-5.924-9.593-4.524c-3.278,1.177-6.196,3.029-8.672,5.506  c-9.175,9.175-9.175,24.104,0,33.28C385.654,183.619,391.68,185.913,397.706,185.913z"/>
<path d="M114.293,185.913c6.026,0,12.052-2.293,16.64-6.881c9.175-9.175,9.175-24.104,0-33.28s-24.104-9.176-33.279,0  c-9.175,9.175-9.175,24.104,0,33.28C102.241,183.619,108.268,185.913,114.293,185.913z M108.26,156.358  c1.664-1.663,3.848-2.495,6.033-2.495s4.37,0.832,6.033,2.495c3.327,3.327,3.327,8.74,0,12.067c-3.327,3.326-8.739,3.326-12.066,0  C104.934,165.098,104.934,159.685,108.26,156.358z"/>
<path d="M73.221,302.476c-3.899-1.4-8.193,0.622-9.595,4.52c-0.424,1.181-1.096,2.235-1.997,3.135  c-1.611,1.612-3.753,2.499-6.033,2.499c-2.279,0-4.421-0.888-6.033-2.499c-3.327-3.327-3.326-8.74,0-12.066  c0.9-0.9,1.956-1.572,3.137-1.997c3.898-1.401,5.922-5.697,4.521-9.595c-1.401-3.897-5.695-5.923-9.595-4.521  c-3.278,1.178-6.195,3.031-8.671,5.506c-9.174,9.176-9.174,24.104,0,33.279c4.445,4.445,10.354,6.893,16.64,6.893  s12.195-2.448,16.639-6.892c2.475-2.475,4.327-5.391,5.505-8.667C79.143,308.173,77.119,303.877,73.221,302.476z"/>
<g>
</g>
<g>
</g>
<g>
</g>
<g>
</g>
<g>
</g>
<g>
</g>
<g>
</g>
<g>
</g>
<g>
</g>
<g>
</g>
<g>
</g>
<g>
</g>
<g>
</g>
<g>
</g>
<g>
</g>
</svg>
